<svg xmlns="http://www.w3.org/2000/svg" viewBox="0 0 100 100" width="100" height="100" role="img"><defs><clipPath id="c3"><circle cx="50" cy="50" r="50"/></clipPath></defs><g clip-path="url(#c3)"><circle cx="50" cy="50" r="50" fill="#DFF3E6"/><path d="M18 100 Q18 74 34 68 L66 68 Q82 74 82 100 Z" fill="#27AE60"/><path d="M42 60 L58 60 L58 72 Q50 78 42 72 Z" fill="#F2D2B6"/><circle cx="50" cy="44" r="20" fill="#F2D2B6"/><circle cx="30" cy="46" r="3.4" fill="#F2D2B6"/><circle cx="70" cy="46" r="3.4" fill="#F2D2B6"/><path d="M30 40 Q28 22 40 22 Q44 16 50 20 Q56 16 60 22 Q72 22 70 40 Q66 30 58 30 Q54 24 50 26 Q46 24 42 30 Q34 30 30 40 Z" fill="#8A6D3B"/><circle cx="43" cy="45" r="2.1" fill="#123522"/><circle cx="57" cy="45" r="2.1" fill="#123522"/><path d="M39 40 Q43 38 47 40" stroke="#123522" stroke-width="1.4" fill="none" stroke-linecap="round"/><path d="M53 40 Q57 38 61 40" stroke="#123522" stroke-width="1.4" fill="none" stroke-linecap="round"/><path d="M44 53 Q50 58 56 53" stroke="#123522" stroke-width="1.6" fill="none" stroke-linecap="round"/><path d="M50 46 L48 51 Q50 52.5 52 51" stroke="#123522" stroke-width="1.1" fill="none" stroke-linecap="round" opacity="0.5"/></g></svg>