<svg xmlns="http://www.w3.org/2000/svg" viewBox="0 0 100 100" width="100" height="100" role="img"><defs><clipPath id="c6"><circle cx="50" cy="50" r="50"/></clipPath></defs><g clip-path="url(#c6)"><circle cx="50" cy="50" r="50" fill="#FBF1D6"/><path d="M18 100 Q18 74 34 68 L66 68 Q82 74 82 100 Z" fill="#F2A413"/><path d="M42 60 L58 60 L58 72 Q50 78 42 72 Z" fill="#8D5524"/><circle cx="50" cy="44" r="20" fill="#8D5524"/><path d="M32 46 Q34 66 50 66 Q66 66 68 46 Q64 60 50 60 Q36 60 32 46 Z" fill="#101014" opacity="0.9"/><circle cx="30" cy="46" r="3.4" fill="#8D5524"/><circle cx="70" cy="46" r="3.4" fill="#8D5524"/><path d="M30 42 Q32 24 50 24 Q68 24 70 42 Q64 34 50 34 Q36 34 30 42 Z" fill="#101014"/><circle cx="43" cy="45" r="2.1" fill="#3A2A0A"/><circle cx="57" cy="45" r="2.1" fill="#3A2A0A"/><path d="M39 40 Q43 38 47 40" stroke="#3A2A0A" stroke-width="1.4" fill="none" stroke-linecap="round"/><path d="M53 40 Q57 38 61 40" stroke="#3A2A0A" stroke-width="1.4" fill="none" stroke-linecap="round"/><path d="M44 53 Q50 58 56 53" stroke="#3A2A0A" stroke-width="1.6" fill="none" stroke-linecap="round"/><path d="M50 46 L48 51 Q50 52.5 52 51" stroke="#3A2A0A" stroke-width="1.1" fill="none" stroke-linecap="round" opacity="0.5"/></g></svg>