<svg xmlns="http://www.w3.org/2000/svg" viewBox="0 0 100 100" width="100" height="100" role="img"><defs><clipPath id="c5"><circle cx="50" cy="50" r="50"/></clipPath></defs><g clip-path="url(#c5)"><circle cx="50" cy="50" r="50" fill="#E4EEF7"/><path d="M18 100 Q18 74 34 68 L66 68 Q82 74 82 100 Z" fill="#2D6CDF"/><path d="M42 60 L58 60 L58 72 Q50 78 42 72 Z" fill="#F1C9A5"/><circle cx="50" cy="44" r="20" fill="#F1C9A5"/><circle cx="30" cy="46" r="3.4" fill="#F1C9A5"/><circle cx="70" cy="46" r="3.4" fill="#F1C9A5"/><path d="M26 60 Q24 24 50 22 Q76 24 74 60 Q74 46 66 44 L66 34 Q58 26 50 26 Q42 26 34 34 L34 44 Q26 46 26 60 Z" fill="#9AA0A6"/><circle cx="43" cy="45" r="2.1" fill="#12233F"/><circle cx="57" cy="45" r="2.1" fill="#12233F"/><path d="M39 40 Q43 38 47 40" stroke="#12233F" stroke-width="1.4" fill="none" stroke-linecap="round"/><path d="M53 40 Q57 38 61 40" stroke="#12233F" stroke-width="1.4" fill="none" stroke-linecap="round"/><path d="M44 53 Q50 58 56 53" stroke="#12233F" stroke-width="1.6" fill="none" stroke-linecap="round"/><path d="M50 46 L48 51 Q50 52.5 52 51" stroke="#12233F" stroke-width="1.1" fill="none" stroke-linecap="round" opacity="0.5"/><g fill="none" stroke="#12233F" stroke-width="1.5"><rect x="38.5" y="42" width="9" height="7" rx="2"/><rect x="52.5" y="42" width="9" height="7" rx="2"/><path d="M47.5 45 H52.5"/></g></g></svg>