<svg width="478" height="437" viewBox="0 0 478 437" fill="none" xmlns="http://www.w3.org/2000/svg">
<path d="M236.91 27.199C243.671 30.2727 248.694 35.5173 254.099 40.7907C261.972 48.3638 269.954 55.6822 278.225 62.7203C287.715 70.8205 296.808 79.3392 305.835 88.0577C313.212 95.1769 320.729 102.066 328.347 108.871C334.853 114.77 341.219 120.842 347.597 126.907C353.398 132.411 359.256 137.817 365.202 143.129C373.66 150.699 381.867 158.559 390.075 166.453C397.545 173.62 405.145 180.579 412.84 187.452C418.326 192.426 423.71 197.521 429.09 202.636C438.899 211.955 448.855 221.052 458.91 230.048C462.33 233.128 465.746 236.214 469.161 239.299C469.925 239.988 469.925 239.988 473.789 243.475C474.893 244.472 475.997 245.468 477.134 246.495C471.526 252.681 463.059 250.809 455.47 250.819C452.46 250.808 449.451 250.784 446.441 250.749C443.397 250.73 440.352 250.753 437.308 250.82C421.117 251.171 407.88 251.232 395.366 238.807C392.137 235.373 389.086 231.833 386.015 228.22C383.905 226.164 381.771 224.138 379.595 222.167C377.869 220.53 376.143 218.893 374.418 217.255C363.421 206.837 352.362 196.501 341.284 186.188C333.784 190.701 327.755 196.425 321.403 202.636C319.195 204.771 316.986 206.906 314.776 209.039C313.67 210.109 312.564 211.178 311.424 212.281C306.51 217.003 301.536 221.646 296.552 226.278C289.346 232.983 282.161 239.712 275.015 246.495C277.58 253.949 282.399 258.068 287.854 262.942C289.818 264.735 291.781 266.529 293.744 268.324C294.757 269.246 295.771 270.168 296.816 271.117C301.678 275.564 306.467 280.102 311.256 284.643C312.213 285.549 313.17 286.455 314.156 287.388C322.335 295.132 330.479 302.922 338.619 310.715C347.498 319.21 356.414 327.656 365.345 336.083C369.26 339.778 373.168 343.481 377.071 347.191C385.74 355.424 394.42 363.615 403.307 371.562C410.654 378.139 417.817 384.921 424.948 391.778C450.576 416.412 450.576 416.412 460.567 423.759C461.114 425.568 461.661 427.377 462.224 429.241C465.641 431.411 465.641 431.411 468.851 432.896C468.851 433.499 468.851 434.102 468.851 434.724C459.717 435.088 450.586 435.352 441.448 435.527C438.346 435.6 435.245 435.699 432.145 435.827C403.081 436.989 403.081 436.989 392.881 428.035C390.536 425.453 388.241 422.812 386.015 420.104C384.023 418.189 382.008 416.304 379.964 414.457C378.148 412.725 376.334 410.991 374.521 409.253C367.693 402.749 360.825 396.327 353.812 390.065C344.387 381.619 335.239 372.84 326.082 364.045C320.131 358.33 314.146 352.661 308.149 347.005C300.153 339.458 292.182 331.881 284.23 324.276C283.21 323.301 282.189 322.326 281.137 321.321C275.73 316.152 270.336 310.966 264.958 305.759C263.851 304.69 262.743 303.622 261.602 302.521C259.496 300.489 257.394 298.451 255.297 296.408C249.431 290.757 243.488 285.821 236.91 281.217C236.239 281.913 236.239 281.913 232.84 285.435C222.657 295.93 212.35 306.043 201.479 315.674C197.152 319.591 193.001 323.657 188.866 327.817C181.736 334.984 174.343 341.702 166.843 348.39C162.569 352.296 158.47 356.339 154.385 360.483C147.922 366.99 141.216 372.977 134.298 378.872C125.239 386.591 116.719 394.677 108.353 403.307C97.1084 414.621 97.1084 414.621 92.7761 414.621C92.7761 415.828 92.7761 417.034 92.7761 418.276C90.414 421.032 90.414 421.032 87.2882 423.987C86.2696 424.972 85.2509 425.957 84.2013 426.971C81.1791 429.241 81.1791 429.241 76.209 429.241C75.6622 431.05 75.1155 432.86 74.5522 434.724C54.1194 434.724 33.6866 434.724 13.2537 434.724C13.2537 429.241 13.2537 429.241 16.8131 424.93C18.3721 423.337 19.9311 421.745 21.5373 420.104C23.028 418.549 24.5186 416.994 26.0545 415.392C35.5497 405.737 45.1902 396.476 55.2541 387.538C59.5966 383.596 63.7696 379.51 67.9254 375.331C74.9236 368.303 82.1558 361.685 89.508 355.115C98.0115 347.423 106.317 339.478 114.648 331.56C120.459 326.041 126.287 320.541 132.111 315.038C137.011 310.407 141.906 305.772 146.794 301.126C155.461 292.896 164.139 284.706 173.023 276.762C183.516 267.357 193.687 257.554 203.876 247.755C209.08 242.755 214.298 237.772 219.515 232.789C225.77 226.811 232.024 220.832 238.269 214.842C248.058 205.461 257.864 196.107 267.767 186.874C268.629 186.069 269.492 185.264 270.381 184.435C275.02 180.113 279.674 175.812 284.34 171.526C285.327 170.616 286.313 169.705 287.329 168.768C289.22 167.024 291.114 165.286 293.013 163.555C297.155 159.727 300.155 156.471 303.179 151.467C293.523 141.694 283.684 132.298 273.488 123.219C266.195 116.574 259.099 109.681 252.03 102.748C251.023 101.772 250.017 100.796 248.98 99.7907C248.089 98.9193 247.199 98.0478 246.282 97.1499C243.314 94.6251 240.306 92.8919 236.91 91.1602C235.567 92.5525 234.224 93.9447 232.84 95.3791C222.795 105.733 212.641 115.75 201.919 125.254C196.377 130.23 190.962 135.353 185.552 140.502C177.287 148.36 168.915 156.044 160.443 163.631C153.923 169.558 147.534 175.647 141.134 181.731C135.333 187.235 129.476 192.64 123.529 197.953C115.087 205.51 106.892 213.354 98.7 221.237C90.8201 228.801 82.81 236.146 74.6752 243.375C71.2388 246.495 71.2388 246.495 67.9254 250.15C62.814 250.47 57.8531 250.572 52.7431 250.507C51.9916 250.504 51.9916 250.504 48.1886 250.491C43.3774 250.47 38.5667 250.425 33.7556 250.378C30.4983 250.36 27.2409 250.343 23.9836 250.328C15.9888 250.288 7.99451 250.225 0 250.15C0 248.944 0 247.737 0 246.495C2.43025 244.059 4.97549 241.763 7.55877 239.528C15.4193 232.598 23.0742 225.475 30.6493 218.169C39.2287 209.917 47.9096 201.845 56.7555 193.941C61.9115 189.29 66.9931 184.551 72.0672 179.792C78.6053 173.662 85.1824 167.599 91.8442 161.632C99.9021 154.4 107.784 146.961 115.653 139.481C122.925 132.583 130.319 125.869 137.766 119.2C143.268 114.199 148.675 109.086 154.075 103.952C162.341 96.0949 170.712 88.4102 179.184 80.8236C185.694 74.9055 192.074 68.826 198.463 62.7516C205.978 55.6231 213.607 48.6754 221.301 41.783C226.583 37.0186 231.755 32.128 236.91 27.199Z" fill="#1F96AA"/>
<path d="M236.91 27.199C243.671 30.2727 248.694 35.5173 254.099 40.7907C261.972 48.3638 269.954 55.6822 278.225 62.7203C287.715 70.8205 296.808 79.3392 305.835 88.0577C313.212 95.1769 320.729 102.066 328.347 108.871C334.853 114.77 341.219 120.842 347.597 126.907C353.398 132.411 359.256 137.817 365.202 143.129C373.66 150.699 381.867 158.559 390.075 166.453C397.545 173.62 405.145 180.579 412.84 187.452C418.326 192.426 423.71 197.521 429.09 202.636C438.899 211.955 448.855 221.052 458.91 230.048C462.33 233.128 465.746 236.214 469.161 239.299C469.925 239.988 469.925 239.988 473.789 243.475C474.893 244.472 475.997 245.468 477.134 246.495C471.526 252.681 463.059 250.809 455.47 250.819C452.46 250.808 449.451 250.784 446.441 250.749C443.397 250.73 440.352 250.753 437.308 250.82C421.117 251.171 407.88 251.232 395.366 238.807C392.137 235.373 389.086 231.833 386.015 228.22C383.905 226.164 381.771 224.138 379.595 222.167C377.869 220.53 376.143 218.893 374.418 217.255C363.421 206.837 352.362 196.501 341.284 186.188C333.784 190.701 327.755 196.425 321.403 202.636C319.195 204.771 316.986 206.906 314.776 209.039C313.67 210.109 312.564 211.178 311.424 212.281C306.51 217.003 301.536 221.646 296.552 226.278C289.346 232.983 282.161 239.712 275.015 246.495C277.58 253.949 282.399 258.068 287.854 262.942C289.818 264.735 291.781 266.529 293.744 268.324C294.757 269.246 295.771 270.168 296.816 271.117C301.678 275.564 306.467 280.102 311.256 284.643C312.213 285.549 313.17 286.455 314.156 287.388C322.335 295.132 330.479 302.922 338.619 310.715C347.498 319.21 356.414 327.656 365.345 336.083C369.26 339.778 373.168 343.481 377.071 347.191C385.74 355.424 394.42 363.615 403.307 371.562C410.654 378.139 417.817 384.921 424.948 391.778C450.576 416.412 450.576 416.412 460.567 423.759C461.114 425.568 461.661 427.377 462.224 429.241C465.641 431.411 465.641 431.411 468.851 432.896C468.851 433.499 468.851 434.102 468.851 434.724C459.717 435.088 450.586 435.352 441.448 435.527C438.346 435.6 435.245 435.699 432.145 435.827C403.081 436.989 403.081 436.989 392.881 428.035C390.536 425.453 388.241 422.812 386.015 420.104C384.023 418.189 382.008 416.304 379.964 414.457C378.148 412.725 376.334 410.991 374.521 409.253C367.693 402.749 360.825 396.327 353.812 390.065C344.387 381.619 335.239 372.84 326.082 364.045C320.131 358.33 314.146 352.661 308.149 347.005C300.153 339.458 292.182 331.881 284.23 324.276C283.21 323.301 282.189 322.326 281.137 321.321C275.73 316.152 270.336 310.966 264.958 305.759C263.851 304.69 262.743 303.622 261.602 302.521C259.496 300.489 257.394 298.451 255.297 296.408C249.431 290.757 243.488 285.821 236.91 281.217C236.239 281.913 236.239 281.913 232.84 285.435C222.657 295.93 212.35 306.043 201.479 315.674C197.152 319.591 193.001 323.657 188.866 327.817C181.736 334.984 174.343 341.702 166.843 348.39C162.569 352.296 158.47 356.339 154.385 360.483C147.922 366.99 141.216 372.977 134.298 378.872C125.239 386.591 116.719 394.677 108.353 403.307C97.1084 414.621 97.1084 414.621 92.7761 414.621C92.7761 415.828 92.7761 417.034 92.7761 418.276C90.414 421.032 90.414 421.032 87.2882 423.987C86.2696 424.972 85.2509 425.957 84.2013 426.971C81.1791 429.241 81.1791 429.241 76.209 429.241C75.6622 431.05 75.1155 432.86 74.5522 434.724C54.1194 434.724 33.6866 434.724 13.2537 434.724C13.2537 429.241 13.2537 429.241 16.8131 424.93C18.3721 423.337 19.9311 421.745 21.5373 420.104C23.028 418.549 24.5186 416.994 26.0545 415.392C35.5497 405.737 45.1902 396.476 55.2541 387.538C59.5966 383.596 63.7696 379.51 67.9254 375.331C74.9236 368.303 82.1558 361.685 89.508 355.115C98.0115 347.423 106.317 339.478 114.648 331.56C120.459 326.041 126.287 320.541 132.111 315.038C137.011 310.407 141.906 305.772 146.794 301.126C155.461 292.896 164.139 284.706 173.023 276.762C183.516 267.357 193.687 257.554 203.876 247.755C209.08 242.755 214.298 237.772 219.515 232.789C225.77 226.811 232.024 220.832 238.269 214.842C248.058 205.461 257.864 196.107 267.767 186.874C268.629 186.069 269.492 185.264 270.381 184.435C275.02 180.113 279.674 175.812 284.34 171.526C285.327 170.616 286.313 169.705 287.329 168.768C289.22 167.024 291.114 165.286 293.013 163.555C297.155 159.727 300.155 156.471 303.179 151.467C293.523 141.694 283.684 132.298 273.488 123.219C266.195 116.574 259.099 109.681 252.03 102.748C251.023 101.772 250.017 100.796 248.98 99.7907C248.089 98.9193 247.199 98.0478 246.282 97.1499C243.314 94.6251 240.306 92.8919 236.91 91.1602C235.567 92.5525 234.224 93.9447 232.84 95.3791C222.795 105.733 212.641 115.75 201.919 125.254C196.377 130.23 190.962 135.353 185.552 140.502C177.287 148.36 168.915 156.044 160.443 163.631C153.923 169.558 147.534 175.647 141.134 181.731C135.333 187.235 129.476 192.64 123.529 197.953C115.087 205.51 106.892 213.354 98.7 221.237C90.8201 228.801 82.81 236.146 74.6752 243.375C71.2388 246.495 71.2388 246.495 67.9254 250.15C62.814 250.47 57.8531 250.572 52.7431 250.507C51.9916 250.504 51.9916 250.504 48.1886 250.491C43.3774 250.47 38.5667 250.425 33.7556 250.378C30.4983 250.36 27.2409 250.343 23.9836 250.328C15.9888 250.288 7.99451 250.225 0 250.15C0 248.944 0 247.737 0 246.495C2.43025 244.059 4.97549 241.763 7.55877 239.528C15.4193 232.598 23.0742 225.475 30.6493 218.169C39.2287 209.917 47.9096 201.845 56.7555 193.941C61.9115 189.29 66.9931 184.551 72.0672 179.792C78.6053 173.662 85.1824 167.599 91.8442 161.632C99.9021 154.4 107.784 146.961 115.653 139.481C122.925 132.583 130.319 125.869 137.766 119.2C143.268 114.199 148.675 109.086 154.075 103.952C162.341 96.0949 170.712 88.4102 179.184 80.8236C185.694 74.9055 192.074 68.826 198.463 62.7516C205.978 55.6231 213.607 48.6754 221.301 41.783C226.583 37.0186 231.755 32.128 236.91 27.199Z" fill="#1F96AA"/>
<path d="M435.924 4.47003C450.025 13.2059 461.312 26.2653 466.587 43.3965C469.287 60.7302 468.405 76.3458 460.413 91.7743C451.161 106.036 440.549 113.141 425.777 118.572C407.118 120.078 393.689 118.579 378.975 105.209C368.508 94.4459 361.824 83.9069 360.667 67.7603C360.634 65.2811 360.629 62.8013 360.647 60.3219C360.657 59.0251 360.666 57.7283 360.676 56.3922C361.018 40.126 365.845 28.0056 376.075 16.2343C380.825 12.1229 385.745 8.56993 390.986 5.26955C391.932 4.58168 392.878 3.89381 393.853 3.1851C405.566 -1.70723 424.441 -0.716872 435.924 4.47003Z" fill="#11161C"/>
</svg>
